<?xml version="1.0" encoding="utf-8"?>
<!-- Generator: Adobe Illustrator 15.0.0, SVG Export Plug-In . SVG Version: 6.00 Build 0)  -->
<!DOCTYPE svg PUBLIC "-//W3C//DTD SVG 1.1//EN" "http://www.w3.org/Graphics/SVG/1.1/DTD/svg11.dtd">
<svg version="1.1" id="Layer_1" xmlns="http://www.w3.org/2000/svg" xmlns:xlink="http://www.w3.org/1999/xlink" x="0px" y="0px"
	 width="57px" height="66px" viewBox="0 0 57 66" enable-background="new 0 0 57 66" xml:space="preserve">
<path opacity="0.2" fill="#303030" enable-background="new    " d="M57,37.965C57,54.598,43.877,65.58,28.76,65.58
	c-10.29,0-19.894-5.523-24.978-14.168l0.604-0.027c1.313,1.193,3.391,2.58,7.404,2.516c4.77-0.064,5.645-0.875,9.855-2.756
	c22.716-10.17,26.925-19.457,27.735-21.59c0.812-2.133,2.013-5.587,0.756-9.415c-0.241-0.736-0.42-1.333-0.54-1.808
	c-3.018-3.372-6.017-5.225-6.92-5.784c-0.14-0.093-0.29-0.177-0.43-0.26l0.44,0.26c2.01,1.247,14.313,8.782,14.313,25.417H57z"/>
<path fill="#FFFFFF" d="M37.59,51.506c1.006,0,2.077,0.066,2.83,0.568c0.756,0.504,1.193,1.631,1.445,2.264
	c0.25,0.633,0,1.006-0.503,1.258c-0.438,0.25-0.503,0.119-0.94-0.689c-0.439-0.811-0.82-1.631-3.01-1.631
	c-2.19,0-2.887,0.756-3.948,1.631s-1.442,1.191-1.825,0.689c-0.382-0.504-0.253-1.006,0.438-1.631
	c0.689-0.623,1.825-1.629,2.888-2.076C36.024,51.439,36.584,51.506,37.59,51.506L37.59,51.506z M27.177,58.658
	c1.257,1.006,3.141,1.826,7.153,1.826c4.015,0,6.836-1.139,8.094-2.078c0.568-0.438,0.82-0.064,0.875,0.188
	c0.057,0.25,0.187,0.623-0.252,1.07c-0.315,0.316-3.194,2.33-6.594,2.635c-3.4,0.311-7.964,0.504-10.73-2.01
	c-0.438-0.439-0.315-1.07,0-1.322c0.317-0.25,0.568-0.438,0.94-0.438C27.037,58.537,26.98,58.537,27.177,58.658L27.177,58.658z"/>
<path opacity="0.2" fill="#AAAAAA" enable-background="new    " d="M49.39,29.544c-0.81,2.133-5.02,11.42-27.734,21.59
	c-4.21,1.879-5.085,2.689-9.854,2.756c-4.013,0.066-6.09-1.32-7.402-2.514l-0.605,0.027h-0.01c-2.394-4.041-3.78-8.783-3.78-13.951
	c0-7.853,2.97-13.655,6.287-17.688c0.11-0.13,0.213-0.26,0.325-0.382c2.683-3.147,5.55-5.17,7.218-6.203
	c0.038-0.027,0.075-0.047,0.112-0.064c0.42-0.25,0.754-0.447,0.986-0.568c2.758-1.51,4.771-2.263,7.963-4.77
	c0.12-0.093,0.242-0.187,0.354-0.288l0.008-0.01c0.875-0.755,1.641-1.761,2.18-3.4V4.072c0.325-0.971,0.567-2.16,0.717-3.65
	l0.02,0.019c2.253,2.689,4.954,5.886,6.89,7.144c0.69,0.447,1.381,0.848,2.068,1.202l0.3,0.15c2.243,1.126,4.507,1.944,6.808,3.333
	l0.428,0.26c0.903,0.56,3.902,2.412,6.92,5.784c0.12,0.475,0.298,1.069,0.54,1.807C51.4,23.957,50.199,27.412,49.39,29.544
	L49.39,29.544z"/>
<path opacity="0.5" fill="#333333" enable-background="new    " d="M42.676,12.538c-3.26-2.077-6.464-2.887-9.603-4.955
	c-1.938-1.267-4.641-4.47-6.894-7.162c-0.438,4.332-1.686,6.148-3.26,7.351c-3.195,2.515-5.207,3.26-7.963,4.77
	c-2.338,1.256-14.958,8.726-14.958,24.913c0,5.17,1.387,9.91,3.77,13.961c5.077,8.635,14.681,14.158,24.971,14.158
	c15.126,0,28.239-10.98,28.239-27.615c0-9.126-3.706-15.526-7.386-19.632c-3.016-3.382-6.015-5.217-6.918-5.785L42.676,12.538z
	 M50.303,19.877c4.117,5.15,6.213,11.23,6.213,18.078c0,3.967-0.755,7.711-2.244,11.146c-1.414,3.25-3.444,6.131-6.054,8.561
	c-5.149,4.807-12.062,7.451-19.475,7.451c-3.67,0-7.265-0.699-10.692-2.086c-3.372-1.361-6.397-3.297-9.016-5.775
	c-5.532-5.225-8.57-12.256-8.57-19.799c0-6.716,2.181-12.696,6.483-17.753c3.288-3.865,6.836-6.007,8.196-6.743
	c0.67-0.363,1.284-0.69,1.89-0.997c1.892-0.97,3.68-1.89,6.14-3.818c1.313-0.997,2.71-2.579,3.306-6.585
	c2.076,2.469,4.479,5.234,6.313,6.427c1.63,1.079,3.308,1.835,4.918,2.562c1.527,0.69,3.11,1.406,4.676,2.403l0.057,0.037
	C47.063,15.825,49.503,18.88,50.303,19.877L50.303,19.877z"/>
<path opacity="0.5" fill="#FFFFFF" enable-background="new    " d="M26.48,1.677c0.873,2.58,0.753,3.894,0.753,4.452
	c0,0.561-0.308,2.077-1.313,2.832c-0.438,0.317-0.568,0.568-0.568,0.624c0,0.25,0.568,0.438,0.568,1.006
	c0,0.69-0.316,2.077-3.642,5.394c-3.325,3.315-8.104,6.277-11.8,8.103c-3.698,1.826-5.469,1.687-5.971,0.811s0.186-2.83,2.515-5.393
	l9.667-6.277l9.164-6.398l0.503-2.44"/>
<path fill="#FFFFFF" d="M26.48,1.613c-0.57,4.145-1.826,5.393-3.513,6.715c-2.83,2.133-5.588,3.446-6.212,3.763
	c-1.63,0.82-7.535,4.08-10.607,8.784c-0.94,1.444,0,2.012,0.186,2.133c0.188,0.12,2.33,0.372,6.9-2.385
	c4.573-2.757,6.595-4.387,9.175-7.078c1.377-1.444,1.573-2.263,1.573-2.636c0-0.438-0.316-0.624-0.82-0.754
	c-0.25-0.065-0.316-0.188,0-0.373c0.316-0.187,1.622-0.82,1.938-1.07c0.318-0.25,1.827-1.257,1.883-2.887
	c0.064-1.63-0.057-2.767-0.504-4.21L26.48,1.613z M12.368,47.24c0.064-4.898,4.647-9.471,10.422-9.535
	c7.348-0.066,12.424,7.283,16.13,7.207c3.14-0.064,9.166-6.211,12.118-6.211c3.14,0,4.014,3.26,4.014,5.205
	c0,1.938-0.623,5.459-2.133,7.656s-2.44,3.008-4.2,2.889c-2.264-0.188-6.779-7.211-9.67-7.352c-3.64-0.119-11.547,7.602-17.75,7.602
	c-3.763,0-4.899-0.568-6.146-1.379c-1.92-1.313-2.851-3.314-2.785-6.08L12.368,47.24z"/>
</svg>
