<?xml version="1.0" encoding="utf-8"?>
<!-- Generator: Adobe Illustrator 15.0.0, SVG Export Plug-In . SVG Version: 6.00 Build 0)  -->
<!DOCTYPE svg PUBLIC "-//W3C//DTD SVG 1.1//EN" "http://www.w3.org/Graphics/SVG/1.1/DTD/svg11.dtd">
<svg version="1.1" id="Layer_1" xmlns="http://www.w3.org/2000/svg" xmlns:xlink="http://www.w3.org/1999/xlink" x="0px" y="0px"
	 width="49.25px" height="49.248px" viewBox="0 0 49.25 49.248" enable-background="new 0 0 49.25 49.248" xml:space="preserve">
<path fill="#010101" d="M24.625,0C11.025,0,0,11.027,0,24.625c0,13.599,11.025,24.623,24.625,24.623
	c13.6,0,24.625-11.023,24.625-24.623C49.25,11.027,38.224,0,24.625,0 M31.142,24.522h-4.264v15.207h-6.32V24.522h-3.006v-5.369
	h3.006v-3.479c0-2.49,1.182-6.377,6.378-6.377l4.681,0.018v5.215h-3.398c-0.555,0-1.34,0.277-1.34,1.461v3.163h4.818L31.142,24.522z
	"/>
</svg>
