<?xml version="1.0" encoding="utf-8"?>
<!-- Generator: Adobe Illustrator 15.0.0, SVG Export Plug-In . SVG Version: 6.00 Build 0)  -->
<!DOCTYPE svg PUBLIC "-//W3C//DTD SVG 1.1//EN" "http://www.w3.org/Graphics/SVG/1.1/DTD/svg11.dtd">
<svg version="1.1" id="Layer_1" xmlns="http://www.w3.org/2000/svg" xmlns:xlink="http://www.w3.org/1999/xlink" x="0px" y="0px"
	 width="49.248px" height="49.248px" viewBox="0 0 49.248 49.248" enable-background="new 0 0 49.248 49.248" xml:space="preserve">
<path fill="#010101" d="M24.625,0C11.024,0,0,11.022,0,24.623c0,13.6,11.025,24.625,24.625,24.625
	c13.598,0,24.622-11.025,24.622-24.625C49.248,11.022,38.222,0,24.625,0 M31.472,25.164c0,7.48-4.971,12.509-12.369,12.509
	c-7.235,0-13.121-5.78-13.121-12.888c0-7.106,5.886-12.888,13.121-12.888c3.165,0,6.222,1.123,8.608,3.161l-3.338,3.766
	c-1.459-1.247-3.332-1.934-5.271-1.934c-4.432,0-8.038,3.541-8.038,7.894c0,4.354,3.606,7.896,8.038,7.896
	c3.751,0,6.206-1.797,7.003-5.021h-6.941v-4.991h12.307V25.164z M41.363,25.713v3.804h-3.044v-3.804h-3.804v-3.044h3.804v-3.805
	h3.044v3.805h3.805v3.044H41.363z"/>
</svg>
