<?xml version="1.0" encoding="utf-8"?>
<!-- Generator: Adobe Illustrator 15.0.0, SVG Export Plug-In . SVG Version: 6.00 Build 0)  -->
<!DOCTYPE svg PUBLIC "-//W3C//DTD SVG 1.1//EN" "http://www.w3.org/Graphics/SVG/1.1/DTD/svg11.dtd">
<svg version="1.1" id="Layer_1" xmlns="http://www.w3.org/2000/svg" xmlns:xlink="http://www.w3.org/1999/xlink" x="0px" y="0px"
	 width="49.248px" height="49.248px" viewBox="0 0 49.248 49.248" enable-background="new 0 0 49.248 49.248" xml:space="preserve">
<polygon fill="#010101" points="34.789,19.234 34.789,15.287 34.789,14.697 34.199,14.699 30.252,14.713 30.267,19.249 "/>
<path fill="#010101" d="M24.502,29.71c2.598,0,4.713-2.113,4.713-4.711c0-1.025-0.334-1.975-0.893-2.748
	c-0.855-1.186-2.248-1.965-3.82-1.965c-1.572,0-2.963,0.779-3.82,1.965c-0.559,0.773-0.891,1.723-0.891,2.748
	C19.791,27.597,21.904,29.71,24.502,29.71"/>
<path fill="#010101" d="M24.625,0C11.025,0,0,11.023,0,24.623s11.025,24.625,24.625,24.625c13.598,0,24.623-11.025,24.623-24.625
	S38.222,0,24.625,0 M37.888,22.251v10.961c0,2.853-2.321,5.172-5.174,5.172H16.289c-2.853,0-5.173-2.319-5.173-5.172V22.251v-5.464
	c0-2.854,2.32-5.173,5.173-5.173h16.425c2.853,0,5.174,2.319,5.174,5.173V22.251z"/>
<path fill="#010101" d="M31.822,24.999c0,4.035-3.283,7.32-7.32,7.32s-7.318-3.285-7.318-7.32c0-0.973,0.193-1.898,0.537-2.748
	h-3.996v10.961c0,1.414,1.15,2.564,2.564,2.564h16.425c1.414,0,2.564-1.15,2.564-2.564V22.251H31.28
	C31.627,23.101,31.822,24.027,31.822,24.999"/>
</svg>
