<?xml version="1.0" encoding="utf-8"?>
<!-- Generator: Adobe Illustrator 15.0.0, SVG Export Plug-In . SVG Version: 6.00 Build 0)  -->
<!DOCTYPE svg PUBLIC "-//W3C//DTD SVG 1.1//EN" "http://www.w3.org/Graphics/SVG/1.1/DTD/svg11.dtd">
<svg version="1.1" id="Layer_1" xmlns="http://www.w3.org/2000/svg" xmlns:xlink="http://www.w3.org/1999/xlink" x="0px" y="0px"
	 width="60px" height="60px" viewBox="4 4 60 60" enable-background="new 4 4 60 60" xml:space="preserve">
<path fill="#010101" d="M50.837,48.137V36.425c0-6.275-3.351-9.195-7.815-9.195c-3.604,0-5.22,1.983-6.119,3.374V27.71h-6.791
	c0.09,1.917,0,20.427,0,20.427h6.791V36.729c0-0.608,0.043-1.219,0.224-1.654c0.49-1.22,1.606-2.483,3.481-2.483
	c2.459,0,3.44,1.873,3.44,4.618v10.93h6.789V48.137z M22.959,24.922c2.367,0,3.842-1.57,3.842-3.531
	c-0.044-2.003-1.475-3.528-3.797-3.528c-2.322,0-3.841,1.524-3.841,3.528c0,1.961,1.474,3.531,3.753,3.531H22.959z M34,64
	C17.432,64,4,50.568,4,34C4,17.431,17.432,4,34,4c16.568,0,30,13.431,30,30C64,50.568,50.568,64,34,64z M26.354,48.137V27.71h-6.789
	v20.427H26.354z"/>
</svg>
