<?xml version="1.0" encoding="utf-8"?>
<!-- Generator: Adobe Illustrator 15.0.0, SVG Export Plug-In . SVG Version: 6.00 Build 0)  -->
<!DOCTYPE svg PUBLIC "-//W3C//DTD SVG 1.1//EN" "http://www.w3.org/Graphics/SVG/1.1/DTD/svg11.dtd">
<svg version="1.1" id="Layer_3" xmlns="http://www.w3.org/2000/svg" xmlns:xlink="http://www.w3.org/1999/xlink" x="0px" y="0px"
	 width="32.009px" height="24.114px" viewBox="0 0 32.009 24.114" enable-background="new 0 0 32.009 24.114" xml:space="preserve">
<g>
	<g>
		<path fill-rule="evenodd" clip-rule="evenodd" fill="#CCCCCC" d="M17.505,0C9.494,0,3,4.701,3,10.5
			c0,0.471,0.058,0.932,0.141,1.387c-0.003,0.007-0.007,0.016-0.01,0.022C3.443,13.471,4.611,16.723,9.012,19
			c-0.4,1.467-1.211,2.689-2.291,3.643C7.381,22.873,8.084,23,8.814,23c1.917,0,4.094-0.867,5.617-2.241
			C15.422,20.914,16.449,21,17.505,21c8.01,0,14.504-4.701,14.504-10.5S25.515,0,17.505,0z M10.526,13
			c-1.38,0-2.499-1.119-2.499-2.5S9.146,8,10.526,8c1.379,0,2.498,1.119,2.498,2.5S11.905,13,10.526,13z M17.52,13
			c-1.379,0-2.498-1.119-2.498-2.5S16.141,8,17.52,8c1.38,0,2.499,1.119,2.499,2.5S18.9,13,17.52,13z M24.515,13
			c-1.38,0-2.498-1.119-2.498-2.5S23.135,8,24.515,8c1.379,0,2.498,1.119,2.498,2.5S25.895,13,24.515,13z"/>
	</g>
</g>
</svg>
