<?xml version="1.0" encoding="utf-8"?>
<!-- Generator: Adobe Illustrator 15.0.0, SVG Export Plug-In . SVG Version: 6.00 Build 0)  -->
<!DOCTYPE svg PUBLIC "-//W3C//DTD SVG 1.1//EN" "http://www.w3.org/Graphics/SVG/1.1/DTD/svg11.dtd">
<svg version="1.1" id="Layer_1" xmlns="http://www.w3.org/2000/svg" xmlns:xlink="http://www.w3.org/1999/xlink" x="0px" y="0px"
	 width="49.249px" height="49.249px" viewBox="0 0 49.249 49.249" enable-background="new 0 0 49.249 49.249" xml:space="preserve">
<path fill="#010101" d="M24.625,0C11.026,0,0,11.023,0,24.625c0,10.082,6.063,18.744,14.739,22.553
	c-0.069-1.721-0.012-3.782,0.429-5.653c0.473-2,3.168-13.418,3.168-13.418s-0.787-1.572-0.787-3.896
	c0-3.647,2.115-6.373,4.749-6.373c2.24,0,3.322,1.682,3.322,3.695c0,2.252-1.438,5.619-2.175,8.738
	c-0.616,2.612,1.31,4.743,3.887,4.743c4.665,0,7.808-5.991,7.808-13.092c0-5.396-3.635-9.437-10.246-9.437
	c-7.47,0-12.123,5.569-12.123,11.792c0,2.146,0.633,3.657,1.624,4.83c0.455,0.536,0.519,0.754,0.354,1.37
	c-0.118,0.453-0.389,1.546-0.501,1.978c-0.164,0.625-0.669,0.848-1.233,0.617c-3.44-1.404-5.043-5.172-5.043-9.408
	c0-6.994,5.899-15.382,17.599-15.382c9.399,0,15.588,6.804,15.588,14.106c0,9.658-5.369,16.875-13.285,16.875
	c-2.659,0-5.16-1.438-6.016-3.067c0,0-1.43,5.674-1.732,6.768c-0.522,1.9-1.545,3.797-2.479,5.275
	c2.215,0.653,4.554,1.01,6.979,1.01c13.598,0,24.623-11.023,24.623-24.623C49.248,11.023,38.222,0,24.625,0"/>
</svg>
