<?xml version="1.0" encoding="utf-8"?>
<!-- Generator: Adobe Illustrator 15.0.0, SVG Export Plug-In . SVG Version: 6.00 Build 0)  -->
<!DOCTYPE svg PUBLIC "-//W3C//DTD SVG 1.1//EN" "http://www.w3.org/Graphics/SVG/1.1/DTD/svg11.dtd">
<svg version="1.1" id="Layer_1" xmlns="http://www.w3.org/2000/svg" xmlns:xlink="http://www.w3.org/1999/xlink" x="0px" y="0px"
	 width="18.001px" height="18.001px" viewBox="0 0 18.001 18.001" enable-background="new 0 0 18.001 18.001" xml:space="preserve">
<g>
	<g>
		<path fill-rule="evenodd" clip-rule="evenodd" fill="#333333" d="M17.48,14.967l-3.634-3.635c1.743-2.872,1.382-6.662-1.1-9.145
			c-2.916-2.916-7.644-2.916-10.56,0c-2.915,2.916-2.915,7.643,0,10.559c2.482,2.482,6.273,2.844,9.146,1.1l3.633,3.635
			c0.694,0.694,1.82,0.694,2.515,0S18.175,15.66,17.48,14.967z M4.198,10.735c-1.805-1.806-1.805-4.731,0-6.537
			c1.805-1.805,4.731-1.805,6.537,0c1.805,1.806,1.805,4.731,0,6.537C8.93,12.54,6.003,12.54,4.198,10.735z"/>
	</g>
</g>
</svg>
