<?xml version="1.0" encoding="utf-8"?>
<!-- Generator: Adobe Illustrator 15.0.0, SVG Export Plug-In . SVG Version: 6.00 Build 0)  -->
<!DOCTYPE svg PUBLIC "-//W3C//DTD SVG 1.1//EN" "http://www.w3.org/Graphics/SVG/1.1/DTD/svg11.dtd">
<svg version="1.1" id="Layer_1" xmlns="http://www.w3.org/2000/svg" xmlns:xlink="http://www.w3.org/1999/xlink" x="0px" y="0px"
	 width="49.248px" height="49.248px" viewBox="0 0 49.248 49.248" enable-background="new 0 0 49.248 49.248" xml:space="preserve">
<path fill="#010101" d="M24.625,0C11.025,0,0,11.027,0,24.625c0,13.599,11.025,24.623,24.625,24.623
	c13.6,0,24.623-11.023,24.623-24.623C49.248,11.027,38.224,0,24.625,0 M37.029,19.66c0.013,0.266,0.018,0.533,0.018,0.803
	c0,8.201-6.242,17.656-17.656,17.656c-3.504,0-6.767-1.027-9.513-2.787c0.486,0.057,0.979,0.086,1.48,0.086
	c2.908,0,5.584-0.992,7.707-2.656c-2.715-0.051-5.006-1.846-5.796-4.311c0.378,0.074,0.767,0.111,1.167,0.111
	c0.566,0,1.114-0.074,1.635-0.217c-2.84-0.57-4.979-3.081-4.979-6.084c0-0.027,0-0.053,0.001-0.08
	c0.836,0.465,1.793,0.744,2.811,0.777c-1.666-1.115-2.761-3.012-2.761-5.166c0-1.137,0.306-2.204,0.84-3.12
	c3.061,3.754,7.634,6.225,12.792,6.483c-0.106-0.453-0.161-0.928-0.161-1.414c0-3.426,2.777-6.205,6.206-6.205
	c1.785,0,3.396,0.754,4.528,1.959c1.414-0.277,2.742-0.795,3.941-1.506c-0.465,1.45-1.448,2.666-2.73,3.433
	c1.258-0.15,2.453-0.484,3.565-0.977C39.295,17.692,38.242,18.785,37.029,19.66"/>
</svg>
