<?xml version="1.0" encoding="utf-8"?>
<!-- Generator: Adobe Illustrator 15.0.0, SVG Export Plug-In . SVG Version: 6.00 Build 0)  -->
<!DOCTYPE svg PUBLIC "-//W3C//DTD SVG 1.1//EN" "http://www.w3.org/Graphics/SVG/1.1/DTD/svg11.dtd">
<svg version="1.1" id="Layer_1" xmlns="http://www.w3.org/2000/svg" xmlns:xlink="http://www.w3.org/1999/xlink" x="0px" y="0px"
	 width="49.25px" height="49.25px" viewBox="0 0 49.25 49.25" enable-background="new 0 0 49.25 49.25" xml:space="preserve">
<polygon fill="#010101" points="14.11,26.698 15.894,26.698 15.894,35.555 17.617,35.555 17.617,26.698 19.397,26.698 19.397,25.19 
	14.11,25.19 "/>
<path fill="#010101" d="M24.691,19.338c0.233,0,0.42-0.062,0.557-0.189c0.137-0.131,0.207-0.309,0.207-0.533v-4.59
	c0-0.184-0.07-0.334-0.211-0.445c-0.142-0.115-0.324-0.172-0.553-0.172c-0.209,0-0.38,0.057-0.513,0.172
	c-0.131,0.111-0.195,0.262-0.195,0.445v4.59c0,0.23,0.062,0.408,0.185,0.533C24.289,19.276,24.465,19.338,24.691,19.338"/>
<path fill="#010101" d="M28.49,27.815c-0.238,0-0.474,0.061-0.705,0.182c-0.229,0.121-0.449,0.302-0.654,0.533v-3.34h-1.545v10.365
	h1.545v-0.586c0.199,0.236,0.418,0.408,0.652,0.52c0.231,0.111,0.5,0.166,0.801,0.166c0.451,0,0.801-0.143,1.037-0.432
	c0.24-0.291,0.361-0.705,0.361-1.246v-4.244c0-0.627-0.127-1.104-0.386-1.428C29.343,27.979,28.974,27.815,28.49,27.815
	 M28.406,33.766c0,0.246-0.045,0.42-0.133,0.527c-0.089,0.109-0.226,0.162-0.412,0.162c-0.129,0-0.25-0.029-0.369-0.082
	c-0.117-0.053-0.24-0.146-0.361-0.271v-4.764c0.104-0.106,0.209-0.187,0.314-0.234c0.104-0.053,0.215-0.075,0.323-0.075
	c0.205,0,0.365,0.065,0.478,0.196c0.106,0.136,0.16,0.33,0.16,0.591V33.766z"/>
<path fill="#010101" d="M22.905,33.719c-0.143,0.164-0.301,0.299-0.473,0.408c-0.172,0.107-0.315,0.16-0.426,0.16
	c-0.145,0-0.248-0.039-0.314-0.121c-0.062-0.08-0.096-0.211-0.096-0.391v-5.867h-1.527v6.395c0,0.457,0.091,0.793,0.269,1.025
	c0.183,0.227,0.445,0.34,0.8,0.34c0.286,0,0.584-0.078,0.889-0.242c0.305-0.166,0.598-0.4,0.881-0.709v0.838h1.528v-7.646h-1.528
	v5.811H22.905z"/>
<path fill="#010101" d="M24.625,0C11.024,0,0,11.025,0,24.625C0,38.227,11.024,49.25,24.625,49.25
	c13.6,0,24.625-11.023,24.625-24.625C49.25,11.025,38.224,0,24.625,0 M28.603,12.162h1.72v6.459c0,0.201,0.039,0.344,0.11,0.432
	c0.07,0.09,0.188,0.137,0.351,0.137c0.125,0,0.285-0.061,0.479-0.178c0.191-0.121,0.369-0.271,0.529-0.457v-6.393h1.723v8.424
	h-1.723v-0.93c-0.314,0.342-0.645,0.605-0.99,0.783c-0.342,0.178-0.674,0.27-0.998,0.27c-0.397,0-0.696-0.127-0.899-0.379
	c-0.199-0.248-0.302-0.623-0.302-1.129V12.162z M22.213,14.088c0-0.65,0.229-1.17,0.692-1.561c0.466-0.383,1.089-0.578,1.87-0.578
	c0.713,0,1.295,0.205,1.752,0.611c0.453,0.406,0.68,0.934,0.68,1.578v4.35c0,0.723-0.223,1.287-0.666,1.695
	c-0.449,0.408-1.063,0.613-1.844,0.613c-0.753,0-1.355-0.211-1.808-0.631c-0.451-0.426-0.678-0.996-0.678-1.711L22.213,14.088
	L22.213,14.088z M17.524,9.168l1.259,4.562h0.122l1.197-4.562h1.969l-2.254,6.682v4.737H17.88v-4.526l-2.307-6.893H17.524z
	 M40.064,33.202c0,3.047-2.472,5.52-5.519,5.52H15.37c-3.049,0-5.52-2.473-5.52-5.52v-4.438c0-3.049,2.471-5.52,5.52-5.52h19.176
	c3.047,0,5.519,2.471,5.519,5.52V33.202z"/>
<path fill="#010101" d="M33.105,27.719c-0.687,0-1.24,0.207-1.675,0.627c-0.432,0.416-0.649,0.959-0.649,1.617v3.438
	c0,0.738,0.199,1.316,0.592,1.734c0.393,0.42,0.932,0.631,1.617,0.631c0.762,0,1.334-0.197,1.715-0.592
	c0.387-0.398,0.576-0.988,0.576-1.773v-0.393h-1.572v0.348c0,0.451-0.053,0.742-0.152,0.873c-0.099,0.131-0.276,0.197-0.53,0.197
	c-0.244,0-0.416-0.076-0.519-0.23c-0.1-0.158-0.147-0.436-0.147-0.84v-1.439h2.922v-1.952c0-0.724-0.187-1.277-0.563-1.666
	C34.343,27.913,33.804,27.719,33.105,27.719 M33.709,30.727h-1.35v-0.773c0-0.319,0.049-0.553,0.155-0.686
	c0.107-0.143,0.281-0.211,0.525-0.211c0.229,0,0.404,0.068,0.508,0.211c0.105,0.133,0.16,0.365,0.16,0.686L33.709,30.727
	L33.709,30.727z"/>
</svg>
